<?xml version="1.0" encoding="UTF-8"?><svg id="Layer_1" xmlns="http://www.w3.org/2000/svg" viewBox="0 0 197.97 193.6"><defs><style>.cls-1{fill:none;stroke:#000;stroke-miterlimit:10;stroke-width:4px;}</style></defs><path class="cls-1" d="M31.49,72.92c.02,16.91,1.35,47.09,21.26,66.5,23.19,22.61,81.45,23.52,102.12-18.28,20.5-41.45,62.19-72.65,28.21-64.21-25.47,6.33-14.98,22.59-40.02,22.59s-20.26-3.5-35.76-7.31c-6.25-1.54,8.84-36.87-8.58-54.36-14.74-14.8-40.85-10.17-50.4,1.13-3.56,4.21-16.87,13.86-16.83,53.94Z"/><path d="M71.35,41.16c1.87,4.06-2.69,1.24-7.07,3.26-4.38,2.02-6.92,8.12-8.79,4.06s.16-8.99,4.54-11.01c4.38-2.02,9.45-.37,11.33,3.69Z"/><path class="cls-1" d="M34.46,37.42S9.64,27.1,4.29,45.59c17.46,2.22,27.31,11.33,27.31,11.33,0,0,.57-7,2.86-19.5Z"/><g><g><polyline class="cls-1" points="85.85 153.33 85.85 176.63 69.29 176.63"/><line class="cls-1" x1="86.12" y1="177.57" x2="77.84" y2="192.59"/></g><g><polyline class="cls-1" points="111.45 153.33 111.45 176.63 94.89 176.63"/><line class="cls-1" x1="111.68" y1="177.61" x2="103.41" y2="192.63"/></g></g><path class="cls-1" d="M31.6,75.72s-19.3,.26-28.15-15.02c16.87-.21,28.04-.59,28.04-.59,0,0,.12,3.03,.12,15.62Z"/><path d="M41.45,27.29s-3.16-3.88-.62-13.75c1.84-7.15,10.97,3.72,16.38-11.13,2.24-6.15,9.61,4.12,20.37-1.91,6.96-3.9,13.08,16.52,19.74,6.74,5.85-8.58,8.72,24.05,8.72,24.05,0,0-16.24-15.5-40.18-14.03-12.05,.74-24.41,10.03-24.41,10.03Z"/><path class="cls-1" d="M69.24,106.71s7.71-20.34,25.65-11.44,44.33,8.58,38.29,18.12c-6.04,9.54-26.35,20.03-38.29,13.35"/></svg>