<?xml version="1.0" encoding="UTF-8"?><svg id="Layer_1" xmlns="http://www.w3.org/2000/svg" viewBox="0 0 166.77 189.18"><defs><style>.cls-1{fill:none;stroke:#000;stroke-miterlimit:10;stroke-width:4px;}</style></defs><circle cx="73.9" cy="79.67" r="5.23"/><path class="cls-1" d="M64.94,183.38S-9.03,47.48,69.08,30.66c68.26-14.7,40.46,69.45,63.19,98.78s32.5,24.61,32.5,24.61c0,0,.19,46.49-99.83,29.32Z"/><polyline class="cls-1" points="33.25 79.67 4.78 106.18 36.52 108.07"/><circle class="cls-1" cx="70.81" cy="82.37" r="13.83"/><path d="M36.52,106.33s-9.37,45.93,14.84,43.79c22.52-1.98,26.37-17.74,16.83-31.73-6.28-9.21-31.66-12.07-31.66-12.07Z"/><path class="cls-1" d="M93.91,79.67s5.03,19.82-12.72,24.27"/><path d="M116.18,56.7s25.73-7.76,10.95-24.44c-14.78-16.69-22.85-9.06-28.12-20.5s-14.03-16.69-21.09-5.72-19.52,19.55-24.02,13.83c-4.5-5.72-20.71-8.58-23.57,4.29s6.19,34.05,6.19,34.05c0,0,38.19-23.31,79.65-1.5Z"/><path class="cls-1" d="M150.22,148.41s.59,16.49-25.16,19.7"/></svg>